<svg xmlns="http://www.w3.org/2000/svg" viewBox="0 0 100 100" width="100px" height="100px"><path fill="#c7ede6" d="M88.704,55.881c0.3-0.616,0.566-1.264,0.796-1.943c2.633-7.77-1.349-17.078-9.733-19.325C78.86,23.23,70.86,15.421,61.826,14.088c-10.341-1.525-19.814,5.044-22.966,15.485c-3.799-1.346-7.501-1.182-10.99,0.857c-1.583,0.732-3.031,1.812-4.33,3.233c-1.907,2.086-3.147,4.719-3.652,7.495c-0.748,0.118-1.483,0.236-2.176,0.484c-4.04,1.449-6.589,4.431-7.288,8.923c-0.435,2.797,0.443,5.587,0.933,6.714c1.935,4.455,6.422,6.98,10.981,6.312c0.227-0.033,0.557,0.069,0.752,0.233c0.241,7.12,3.698,13.417,8.884,17.014c8.321,5.772,19.027,3.994,25.781-3.921c2.894,2.96,6.338,4.398,10.384,3.876c4.023-0.519,7.147-2.739,9.426-6.349c1.053,0.283,2.051,0.691,3.083,0.804c4.042,0.442,7.324-1.165,9.732-4.8c0.922-1.391,1.793-3.194,1.793-6.354C92.174,60.838,90.88,57.871,88.704,55.881z"/><path fill="#fff" d="M30.201 35.808H20.17c-.276 0-.5-.224-.5-.5s.224-.5.5-.5h10.031c.276 0 .5.224.5.5S30.478 35.808 30.201 35.808zM33.082 35.808h-1.446c-.276 0-.5-.224-.5-.5s.224-.5.5-.5h1.446c.276 0 .5.224.5.5S33.358 35.808 33.082 35.808zM37.137 35.808h-2.546c-.276 0-.5-.224-.5-.5s.224-.5.5-.5h2.546c.276 0 .5.224.5.5S37.413 35.808 37.137 35.808zM37.137 37.673h-9.616c-.276 0-.5-.224-.5-.5s.224-.5.5-.5h9.616c.276 0 .5.224.5.5S37.413 37.673 37.137 37.673zM25.789 37.673h-.58c-.276 0-.5-.224-.5-.5s.224-.5.5-.5h.58c.276 0 .5.224.5.5S26.065 37.673 25.789 37.673zM23.412 37.673h-1.457c-.276 0-.5-.224-.5-.5s.224-.5.5-.5h1.457c.276 0 .5.224.5.5S23.688 37.673 23.412 37.673zM32.548 33.944h-5.027c-.276 0-.5-.224-.5-.5s.224-.5.5-.5h5.027c.276 0 .5.224.5.5S32.824 33.944 32.548 33.944zM32.548 32.078h-1.257c-.276 0-.5-.224-.5-.5s.224-.5.5-.5h1.257c.276 0 .5.224.5.5S32.824 32.078 32.548 32.078zM29.279 39.538h-1.758c-.276 0-.5-.224-.5-.5s.224-.5.5-.5h1.758c.276 0 .5.224.5.5S29.555 39.538 29.279 39.538z"/><path fill="#fdfcef" d="M39.541,59.09c1.883,0,3.517,0,3.54,0c2.11,0,3.821-1.674,3.821-3.739c0-1.802-1.302-3.305-3.035-3.66c0.02-0.158,0.034-0.317,0.034-0.48c0-2.139-1.772-3.873-3.957-3.873c-1.29,0-2.433,0.607-3.155,1.543c-0.185-2.381-2.358-4.218-4.9-3.913c-1.859,0.223-3.397,1.629-3.739,3.431c-0.11,0.578-0.098,1.139,0.011,1.665c-0.498-0.525-1.208-0.856-1.998-0.856c-1.446,0-2.627,1.102-2.72,2.494c-0.657-0.142-1.371-0.133-2.123,0.143c-1.438,0.528-2.462,1.853-2.522,3.356c-0.085,2.133,1.657,3.889,3.818,3.889c0.164,0,0.741,0,0.874,0h7.934 M33.064,59.09h0.36"/><path fill="#472b29" d="M43.081,59.59h-3.54c-0.276,0-0.5-0.224-0.5-0.5s0.224-0.5,0.5-0.5h3.54c1.831,0,3.321-1.453,3.321-3.239c0-1.524-1.108-2.857-2.636-3.17c-0.256-0.052-0.429-0.293-0.396-0.553c0.018-0.137,0.03-0.276,0.03-0.417c0-1.86-1.551-3.373-3.457-3.373c-1.092,0-2.098,0.491-2.76,1.348c-0.126,0.164-0.34,0.232-0.539,0.173c-0.198-0.059-0.339-0.234-0.355-0.44c-0.079-1.019-0.565-1.943-1.369-2.603c-0.828-0.679-1.884-0.982-2.973-0.853c-1.646,0.197-3.006,1.442-3.307,3.028c-0.094,0.495-0.091,0.989,0.009,1.471c0.045,0.219-0.06,0.441-0.258,0.544c-0.197,0.104-0.44,0.064-0.594-0.099c-0.428-0.451-1.009-0.7-1.635-0.7c-1.169,0-2.145,0.891-2.221,2.027c-0.01,0.145-0.082,0.279-0.198,0.366s-0.265,0.12-0.407,0.089c-0.638-0.139-1.242-0.097-1.845,0.124c-1.262,0.464-2.144,1.631-2.195,2.906c-0.035,0.875,0.283,1.708,0.895,2.345c0.635,0.661,1.496,1.024,2.423,1.024h8.807c0.276,0,0.5,0.224,0.5,0.5s-0.224,0.5-0.5,0.5h-8.807c-1.185,0-2.331-0.485-3.145-1.332c-0.802-0.835-1.219-1.928-1.173-3.078c0.067-1.674,1.212-3.203,2.849-3.805c0.611-0.225,1.241-0.305,1.88-0.245c0.344-1.395,1.629-2.424,3.135-2.424c0.493,0,0.977,0.113,1.414,0.323c0.009-0.242,0.037-0.484,0.083-0.726c0.381-2.009,2.096-3.586,4.17-3.834c1.361-0.161,2.685,0.218,3.726,1.072c0.748,0.614,1.278,1.41,1.546,2.302c0.791-0.648,1.786-1.007,2.842-1.007c2.458,0,4.457,1.962,4.457,4.373c0,0.034,0,0.068-0.001,0.102c1.764,0.555,3.003,2.188,3.003,4.038C47.402,57.688,45.463,59.59,43.081,59.59z M33.423,59.59h-0.36c-0.276,0-0.5-0.224-0.5-0.5s0.224-0.5,0.5-0.5h0.36c0.276,0,0.5,0.224,0.5,0.5S33.7,59.59,33.423,59.59z"/><path fill="#472b29" d="M41.374 53.787c-.018 0-.036-.002-.054-.006-.135-.03-.22-.164-.19-.298.037-.165.094-.327.17-.48.605-1.224 2.273-1.676 3.722-1.006.125.058.18.207.122.332-.059.125-.207.179-.332.122-1.205-.558-2.579-.209-3.063.774-.058.118-.102.241-.13.367C41.592 53.708 41.488 53.787 41.374 53.787zM36.215 59.59h-1.107c-.276 0-.5-.224-.5-.5s.224-.5.5-.5h1.107c.276 0 .5.224.5.5S36.491 59.59 36.215 59.59z"/><path fill="#fff" d="M83.503 43.397h-10.03c-.276 0-.5-.224-.5-.5s.224-.5.5-.5h10.03c.276 0 .5.224.5.5S83.779 43.397 83.503 43.397zM86.384 43.397h-1.446c-.276 0-.5-.224-.5-.5s.224-.5.5-.5h1.446c.276 0 .5.224.5.5S86.661 43.397 86.384 43.397zM90.438 43.397h-2.546c-.276 0-.5-.224-.5-.5s.224-.5.5-.5h2.546c.276 0 .5.224.5.5S90.715 43.397 90.438 43.397zM90.438 45.262h-9.616c-.276 0-.5-.224-.5-.5s.224-.5.5-.5h9.616c.276 0 .5.224.5.5S90.715 45.262 90.438 45.262zM79.091 45.262h-.58c-.276 0-.5-.224-.5-.5s.224-.5.5-.5h.58c.276 0 .5.224.5.5S79.367 45.262 79.091 45.262zM76.714 45.262h-1.456c-.276 0-.5-.224-.5-.5s.224-.5.5-.5h1.456c.276 0 .5.224.5.5S76.99 45.262 76.714 45.262zM85.85 41.532h-5.027c-.276 0-.5-.224-.5-.5s.224-.5.5-.5h5.027c.276 0 .5.224.5.5S86.126 41.532 85.85 41.532zM85.85 39.667h-1.257c-.276 0-.5-.224-.5-.5s.224-.5.5-.5h1.257c.276 0 .5.224.5.5S86.126 39.667 85.85 39.667zM82.581 47.126h-1.759c-.276 0-.5-.224-.5-.5s.224-.5.5-.5h1.759c.276 0 .5.224.5.5S82.857 47.126 82.581 47.126z"/><path fill="#f1bc19" d="M55.362 38.25A11.172 11.172 0 1 0 55.362 60.593999999999994A11.172 11.172 0 1 0 55.362 38.25Z"/><path fill="#77cbd2" d="M66.034,54.972c-0.499,0-0.98,0.076-1.44,0.207c-0.301-3.907-3.381-6.981-7.144-6.981c-2.169,0-4.109,1.025-5.424,2.639c-1.606-3.436-4.937-5.803-8.798-5.803c-5.32,0-9.642,4.488-9.809,10.087c-0.395-0.095-0.804-0.149-1.225-0.149c-3.061,0-5.542,2.631-5.542,5.877c0,3.246,2.481,5.877,5.542,5.877c0.356,0,33.483,0,33.839,0c3.061,0,5.542-2.631,5.542-5.877C71.576,57.603,69.095,54.972,66.034,54.972z"/><path fill="#472b29" d="M66.034,67.226H32.195c-3.332,0-6.042-2.861-6.042-6.377c0-3.78,3.151-6.823,6.799-6.325c0.445-5.647,4.858-9.99,10.277-9.99c3.711,0,7.064,2.061,8.913,5.426c1.425-1.446,3.322-2.262,5.309-2.262c3.779,0,7.007,2.972,7.578,6.866c3.736-0.686,7.047,2.418,7.047,6.284C72.076,64.366,69.366,67.226,66.034,67.226z M32.195,55.472c-2.78,0-5.042,2.412-5.042,5.377c0,2.965,2.262,5.377,5.042,5.377h33.839c2.78,0,5.042-2.412,5.042-5.377c0-3.419-3.032-6.134-6.345-5.189c-0.144,0.039-0.3,0.015-0.422-0.071c-0.123-0.085-0.201-0.222-0.213-0.372c-0.282-3.656-3.201-6.519-6.645-6.519c-1.929,0-3.765,0.895-5.037,2.455c-0.109,0.133-0.282,0.2-0.449,0.18c-0.171-0.021-0.318-0.128-0.392-0.284c-1.59-3.402-4.788-5.515-8.345-5.515c-5.059,0-9.148,4.217-9.309,9.602c-0.005,0.15-0.077,0.291-0.196,0.382c-0.12,0.09-0.274,0.123-0.42,0.089C32.93,55.517,32.558,55.472,32.195,55.472z"/><path fill="#472b29" d="M66.307 52.512c-.033 0-.067-.003-.101-.01-.271-.055-.445-.32-.389-.59.145-.705.218-1.433.218-2.163 0-5.917-4.813-10.73-10.73-10.73-3.452 0-6.715 1.678-8.729 4.487-.161.224-.473.276-.697.115-.225-.161-.276-.473-.115-.697 2.201-3.072 5.768-4.905 9.542-4.905 6.468 0 11.73 5.262 11.73 11.73 0 .797-.08 1.593-.238 2.364C66.748 52.349 66.539 52.512 66.307 52.512zM55.047 37.129c-.276 0-.5-.224-.5-.5v-3.975c0-.276.224-.5.5-.5s.5.224.5.5v3.975C55.547 36.906 55.323 37.129 55.047 37.129zM72.083 50.758h-3.407c-.276 0-.5-.224-.5-.5s.224-.5.5-.5h3.407c.276 0 .5.224.5.5S72.359 50.758 72.083 50.758z"/><path fill="#472b29" d="M64.433 41c-.128 0-.256-.049-.354-.146-.195-.195-.195-.512 0-.707l2.642-2.642c.195-.195.512-.195.707 0s.195.512 0 .707l-2.642 2.642C64.689 40.951 64.561 41 64.433 41zM45.526 40.874c-.128 0-.256-.049-.354-.146L42.5 38.055c-.195-.195-.195-.512 0-.707s.512-.195.707 0l2.672 2.672c.195.195.195.512 0 .707C45.782 40.825 45.654 40.874 45.526 40.874zM60.952 43.147c-.056 0-.113-.019-.159-.057-.187-.154-.38-.301-.579-.438-.113-.079-.142-.235-.063-.348.079-.114.234-.141.348-.063.21.146.415.301.612.464.106.088.122.246.034.352C61.095 43.116 61.024 43.147 60.952 43.147zM48.451 44.35c-.056 0-.112-.019-.159-.057-.106-.088-.122-.246-.034-.352 1.743-2.111 4.311-3.322 7.045-3.322 1.512 0 3.011.377 4.333 1.092.122.065.167.217.101.338-.065.123-.218.166-.338.102-1.25-.675-2.667-1.032-4.096-1.032-2.585 0-5.013 1.145-6.66 3.141C48.595 44.32 48.523 44.35 48.451 44.35zM53.627 64.421h-2.839c-.138 0-.25-.112-.25-.25s.112-.25.25-.25h2.839c.138 0 .25.112.25.25S53.765 64.421 53.627 64.421zM49.652 64.421h-.568c-.138 0-.25-.112-.25-.25s.112-.25.25-.25h.568c.138 0 .25.112.25.25S49.79 64.421 49.652 64.421zM47.948 64.421H31.48c-.138 0-.25-.112-.25-.25s.112-.25.25-.25h16.468c.138 0 .25.112.25.25S48.086 64.421 47.948 64.421z"/><g><path fill="#fdfcef" d="M71.92,71.96c0,0,11.233,0,11.301,0c2.594,0,4.697-2.103,4.697-4.697c0-2.263-1.601-4.152-3.732-4.597c0.025-0.198,0.041-0.399,0.041-0.603c0-2.687-2.178-4.865-4.865-4.865c-1.586,0-2.991,0.763-3.879,1.938c-0.227-2.991-2.898-5.298-6.024-4.916c-2.285,0.28-4.176,2.046-4.596,4.31c-0.135,0.726-0.121,1.431,0.014,2.092c-0.613-0.66-1.485-1.075-2.456-1.075c-1.778,0-3.229,1.384-3.344,3.133c-0.807-0.179-1.685-0.167-2.61,0.18c-1.768,0.664-3.027,2.328-3.1,4.215c-0.105,2.68,2.037,4.885,4.693,4.885c0.202,0,0.911,0,1.074,0h9.753"/><path fill="#472b29" d="M83.221,72.46H71.92c-0.276,0-0.5-0.224-0.5-0.5s0.224-0.5,0.5-0.5h11.301c2.314,0,4.197-1.883,4.197-4.197c0-1.977-1.402-3.704-3.334-4.108c-0.255-0.053-0.427-0.293-0.394-0.552c0.022-0.177,0.038-0.357,0.038-0.541c0-2.407-1.958-4.365-4.365-4.365c-1.376,0-2.645,0.634-3.48,1.739c-0.125,0.167-0.337,0.239-0.54,0.178c-0.199-0.059-0.342-0.234-0.357-0.441c-0.1-1.318-0.746-2.556-1.771-3.397c-1.036-0.849-2.344-1.224-3.694-1.061c-2.072,0.254-3.785,1.86-4.165,3.905c-0.119,0.64-0.115,1.279,0.012,1.9c0.045,0.22-0.062,0.442-0.261,0.545c-0.198,0.102-0.442,0.06-0.595-0.104c-0.548-0.59-1.291-0.916-2.09-0.916c-1.497,0-2.747,1.171-2.845,2.666c-0.01,0.146-0.083,0.28-0.199,0.367c-0.117,0.087-0.268,0.119-0.408,0.088c-0.805-0.179-1.566-0.125-2.327,0.16c-1.596,0.599-2.712,2.113-2.777,3.766c-0.045,1.155,0.37,2.248,1.168,3.078c0.799,0.831,1.873,1.288,3.025,1.288h10.828c0.276,0,0.5,0.224,0.5,0.5s-0.224,0.5-0.5,0.5H58.06c-1.427,0-2.757-0.566-3.746-1.595c-0.989-1.028-1.502-2.381-1.447-3.81c0.08-2.05,1.456-3.924,3.424-4.664c0.767-0.288,1.56-0.386,2.362-0.29c0.371-1.751,1.932-3.055,3.768-3.055c0.649,0,1.286,0.167,1.848,0.476c0.001-0.36,0.036-0.722,0.103-1.084c0.459-2.47,2.526-4.409,5.027-4.715c1.616-0.201,3.2,0.256,4.449,1.28c0.959,0.787,1.643,1.862,1.957,3.048c0.973-0.87,2.224-1.354,3.558-1.354c2.958,0,5.365,2.407,5.365,5.365c0,0.075-0.002,0.15-0.006,0.224c2.167,0.654,3.696,2.679,3.696,4.976C88.418,70.129,86.087,72.46,83.221,72.46z"/><path fill="#472b29" d="M58.894 68.254c-.006 0-.012 0-.017 0-.138-.009-.242-.128-.233-.266.103-1.53 1.538-2.695 3.188-2.578.128.009.257.025.385.049.268-.93 1.216-1.569 2.28-1.505.404.026.784.151 1.108.359 0-.012.001-.024.002-.036.116-1.729 1.734-3.043 3.606-2.913.138.009.242.128.233.266-.009.138-.132.244-.266.233-1.593-.105-2.976.993-3.074 2.447-.012.176-.004.354.022.528.017.109-.041.217-.141.264-.101.046-.22.023-.293-.061-.308-.348-.745-.557-1.23-.588-.907-.061-1.696.53-1.809 1.341-.01.071-.05.134-.11.174-.06.04-.135.051-.204.033-.18-.049-.363-.081-.543-.092-1.378-.083-2.573.857-2.657 2.112C59.134 68.153 59.024 68.254 58.894 68.254zM80.713 65.235c-.018 0-.037-.002-.055-.006-.135-.03-.219-.164-.188-.299.047-.208.118-.411.211-.604.754-1.563 2.796-2.163 4.548-1.334.125.059.179.208.12.333-.059.126-.21.177-.333.12-1.508-.712-3.25-.217-3.885 1.1-.077.159-.135.327-.174.498C80.93 65.156 80.827 65.235 80.713 65.235z"/></g></svg>